<?xml version="1.0" standalone="yes"?>
<svg xmlns="http://www.w3.org/2000/svg" width="3509" height="1553">
<!-- <path style="fill:#ffffff; stroke:none;" d="M0 0L0 1553L3509 1553L3509 0L0 0z"/> -->
<path style="fill:#1f292b; stroke:none;" d="M3317 207L3317 219L3344 219L3344 283L3358 283L3358 219L3385 219L3385 207L3317 207M3395 207L3395 283L3409 283L3409 234L3410 234C3415.19 244.965 3423.4 254.701 3429.81 265C3432.14 268.752 3434.78 274.165 3439.99 273.793C3444.92 273.441 3447.29 267.589 3449.67 264C3456.3 254.001 3463.91 243.882 3469 233L3470 233L3470 283L3484 283L3484 207L3472.18 208.028L3462 222L3439 257L3417.05 222L3406.82 208.028L3395 207z"/>
<path style="fill:#bd273b; stroke:none;" d="M24 210L24 1084L172 1084L172 934L172 889L172.564 868L184.373 851L209.576 817L305.116 688L544.151 363L616.884 264L656 210L524 210L488 210C483.386 210 476.328 208.701 472.174 211.028C462.159 216.636 453.454 234.813 446.63 244C426.621 270.935 406.623 297.893 386.849 325C338.714 390.984 289.576 456.254 241.116 522C226.345 542.04 211.563 562.083 196.627 582C188.762 592.487 178.839 603.275 173 615L172 615L172 210L24 210z"/>
<path style="fill:#1f292b; stroke:none;" d="M1542 1084L1690 1084L1690 542L1690 407L1690 373C1690 369.497 1688.87 363.337 1691.6 360.603C1696.44 355.77 1715.41 359 1722 359L1811 359C1845.38 359 1881.95 355.498 1916 360.428C1958.56 366.591 1996.17 388.269 2024.83 420C2113.44 518.102 2057.31 680.464 1929 707.789C1901.1 713.73 1872.36 712 1844 712L1716 712C1716.27 724.948 1720.5 738.314 1723 751C1727.59 774.319 1731.94 797.695 1736.6 821C1738.33 829.658 1740.24 838.302 1741.75 847C1742.38 850.605 1742.44 855.817 1745.43 858.397C1749.41 861.832 1759.07 860 1764 860L1815 860C1888.36 860 1958.51 861.64 2027 831.139C2151.61 775.646 2231.88 638.075 2215.71 502C2199.69 367.082 2104.26 250.423 1970 218.654C1932.45 209.768 1895.33 210 1857 210L1739 210L1592 210L1556 210C1552.68 210 1545.37 208.649 1543.03 211.603C1540.46 214.85 1542 223.071 1542 227L1542 270L1542 437L1542 1084z"/>
<path style="fill:#bd273b; stroke:none;" d="M1329 211L1329 1084L1476 1084L1476 211L1329 211z"/>
<path style="fill:#1f292b; stroke:none;" d="M2896 436C2899.47 448.145 2906.43 459.549 2911.69 471C2922.89 495.394 2934.49 519.606 2945.69 544C2981.14 621.196 3017.86 697.804 3053.31 775C3066.5 803.73 3080.78 832.025 3093.42 861C3097.5 870.343 3107.78 883.706 3107.78 894C3107.78 904.835 3096.73 919.142 3092.42 929C3078.91 959.981 3063.98 990.572 3049.26 1021C3015.15 1091.5 2982.37 1162.82 2949.69 1234C2937.87 1259.75 2925.51 1285.25 2913.69 1311C2908.44 1322.45 2901.33 1333.81 2898 1346L3018 1346L3050 1346L3062.36 1344.97L3072.24 1326L3095.31 1276L3177.31 1099L3384.31 652L3484 437L3327 437L3307.31 481L3270.31 562L3222.31 667L3195 726C3164.84 652.487 3129.61 579.414 3094.76 508C3086.41 490.897 3078.6 473.387 3070.86 456C3068.68 451.095 3065.7 439.003 3060.61 436.603C3056.74 434.778 3050.2 436 3046 436L3013 436L2896 436z"/>
<path style="fill:#bd273b; stroke:none;" d="M1130 1018L1130 1084L1257 1084L1257 437L1130 437L1130 503C1112.02 487.443 1089.51 475.539 1068 465.691C928.13 401.648 757.115 448.089 668.721 574C588.268 688.599 591.255 844.32 675.374 956C704.966 995.286 743.983 1028.24 788 1050.25C839.1 1075.8 895.326 1085.52 952 1083.04C1017.58 1080.17 1076.97 1055.98 1130 1018z"/>
<path style="fill:#1f292b; stroke:none;" d="M2737 1018L2737 1084L2863 1084L2863 437L2737 437L2737 503C2612.33 406.908 2424.72 417.311 2313.01 529.015C2255 587.032 2224.5 660.375 2216.83 741C2213.15 779.65 2218.84 821.162 2231 858C2244.89 900.066 2265.83 938.302 2294.73 972C2325.41 1007.78 2364.07 1036.95 2407 1056.31C2454.44 1077.69 2508.24 1086.63 2560 1083.09C2604.86 1080.02 2647.81 1069.48 2688 1048.74C2705.3 1039.81 2720.57 1028.23 2737 1018z"/>
<path style="fill:#ffffff; stroke:none;" d="M917 565.424C884.612 569.69 854.403 578.214 827 596.745C802.448 613.348 781.889 634.994 766.053 660C717.037 737.399 734.675 845.021 802 905.83C845.786 945.379 904.917 962.542 963 954.718C990.172 951.057 1017.11 941.089 1040 925.997C1098.57 887.378 1134.75 819.648 1129.91 749C1122.71 643.936 1025.49 551.138 917 565.424M2525 565.424C2488.3 570.245 2455.07 580.374 2425 602.895C2397.98 623.132 2375.39 650.252 2361.31 681C2324.15 762.162 2351.05 860.698 2420 915.55C2439.96 931.429 2463.58 942.7 2488 949.709C2512.08 956.62 2538.16 958.687 2563 955.714C2593.01 952.123 2621.48 942.194 2647 925.946C2764.04 851.443 2764.7 674.847 2650 598.001C2631.81 585.811 2612.31 576.478 2591 571.127C2570.15 565.889 2546.48 562.603 2525 565.424z"/>
<path style="fill:#bd273b; stroke:none;" d="M379 643L311.29 735L294.151 758L288.733 768L302.627 789L341.127 841L470.576 1016L506 1064L522.09 1083.4L539 1084L576 1084L704 1084C699.013 1068.97 683.365 1053.68 673.873 1041C652.267 1012.14 631.127 982.938 609.63 954C556.786 882.865 504.462 811.332 451.884 740C435.685 718.022 419.652 695.917 403.37 674C395.958 664.022 388.89 650.586 379 643z"/>
<path style="fill:#1f292b; stroke:none;" d="M1225 1151.65C1209.48 1156.59 1218.29 1180.94 1234 1176.19C1251.29 1170.97 1242.14 1146.21 1225 1151.65M156 1154L156 1302L176 1302C176 1280.88 169.814 1247.94 180.349 1229C190.569 1210.62 221.257 1206.16 232.633 1226C237.567 1234.6 237 1245.45 237 1255L237 1302L257 1302C257 1277.04 262.757 1243.57 253.536 1220C241.307 1188.74 197.852 1188.15 176 1209L176 1154L156 1154M766 1154L766 1210C760.076 1204.13 754.084 1199.51 746 1197.04C726.495 1191.09 702.289 1196.4 688.808 1212.09C666.891 1237.6 673.374 1282.41 704 1297.73C713.708 1302.59 723.372 1303.05 734 1303C747.116 1302.94 757.794 1297.01 767 1288L767 1302L786 1302L786 1154L766 1154z"/>
<path style="fill:#bd273b; stroke:none;" d="M2484 1154L2484 1302L2504 1302L2504 1154L2484 1154z"/>
<path style="fill:#1f292b; stroke:none;" d="M25 1162L25 1302L46 1302C46 1292.38 42.7796 1275.7 47.0239 1267C52.0352 1256.73 63.4977 1250.23 70 1241L71 1241L105.729 1282L123.09 1300.97L148 1302L110.08 1255L85 1226L85 1225C97.0874 1216.31 106.49 1202.56 117.001 1192C125.591 1183.37 138.853 1173.04 144 1162L121 1162.6L98.9853 1184L46 1238L46 1162L25 1162M955 1302C960.39 1302 971.852 1304.19 976.351 1300.97C985.695 1294.3 983.117 1274.11 993.225 1268.03C997.791 1265.28 1006.83 1267 1012 1267C1027.62 1267 1043.4 1266.33 1059 1267.02C1071 1267.55 1072.7 1291.69 1079.07 1299.68C1082.91 1304.49 1096.38 1302 1102 1302C1098.05 1288.28 1090.25 1274.97 1084.31 1262C1074.09 1239.69 1064.2 1217.22 1053.78 1195C1050.05 1187.05 1046.43 1179.02 1042.86 1171C1041.3 1167.5 1040.22 1162.9 1035.9 1162.15C1031.74 1161.43 1022.03 1160.64 1018.42 1163.03C1011.67 1167.49 1007.71 1184.74 1004.26 1192C993.11 1215.44 982.698 1239.29 972.139 1263C966.455 1275.76 958.845 1288.55 955 1302M1349 1162L1349 1302L1370 1302L1370 1260C1392.66 1260 1419.47 1263.84 1440 1252.12C1468.22 1236.02 1470.36 1190.32 1443 1172.1C1417.53 1155.14 1378.07 1162 1349 1162z"/>
<path style="fill:#bd273b; stroke:none;" d="M2246 1162L2246 1302L2267 1302C2267 1292.14 2264.19 1277.26 2267.6 1268C2271.25 1258.11 2285.61 1248.39 2293 1241C2301.11 1256.63 2317.49 1270.66 2329 1284C2333.61 1289.35 2338.57 1297.74 2345 1300.97C2351.2 1304.09 2362.17 1302 2369 1302C2359.99 1281.78 2338.12 1263.23 2324.2 1246C2320.63 1241.58 2308.04 1230.94 2308.77 1225C2309.45 1219.45 2319.03 1213.09 2322.58 1209C2336.41 1193.08 2354.07 1179.45 2366 1162L2343 1162.6L2320 1184L2267 1239L2267 1162L2246 1162z"/>
<path style="fill:#1f292b; stroke:none;" d="M2533 1162L2533 1302L2554 1302L2554 1260C2577.53 1260 2604.96 1263.88 2626 1251.07C2654.07 1233.99 2653.31 1188.38 2626 1171.09C2600.81 1155.15 2561.41 1162 2533 1162M2129 1173L2129 1196L2111 1196L2111 1213L2129 1213L2129 1263C2129 1273.75 2129.46 1285.62 2137.19 1293.96C2145.89 1303.35 2160.97 1304.79 2173 1302.53C2176.93 1301.8 2184.09 1299.97 2185.76 1295.81C2187.39 1291.77 2182.53 1284.73 2181 1281C2177.08 1282.77 2173.3 1284.96 2169 1285.67C2158.86 1287.36 2151.47 1280.74 2149.76 1271C2146.51 1252.52 2149 1231.75 2149 1213L2180 1213L2180 1196L2149 1196L2149 1173L2129 1173z"/>
<!-- <path style="fill:#ffffff; stroke:none;" d="M1370 1180L1370 1242C1387.38 1242 1408.79 1245.21 1425 1237.68C1444.28 1228.71 1447.62 1198.44 1429 1186.56C1412.85 1176.25 1388.22 1180 1370 1180M2554 1180L2554 1242C2571.98 1242 2594.44 1245.49 2611 1237C2629.76 1227.39 2630.83 1197.53 2613 1186.47C2596.61 1176.3 2572.41 1180 2554 1180M1028 1185L999 1251L1057 1251L1038.31 1207L1028 1185z"/> -->
<path style="fill:#1f292b; stroke:none;" d="M285 1224L286 1224C307.384 1207.7 345.996 1206.47 346 1241C326.706 1241 301.893 1236.74 285.004 1248.1C268.704 1259.07 270.91 1285.44 286 1296.21C303.465 1308.68 331.883 1304.88 347 1291L347 1302L366 1302L366 1241C366 1226.92 364.536 1211.97 351.996 1203.04C336.468 1191.99 312.386 1193 295 1198.67C290.194 1200.24 279.084 1203.33 277.828 1209.09C276.86 1213.53 282.567 1220.58 285 1224M412 1211L411 1211L411 1196L391 1196L391 1302L412 1302C412 1268.99 401.12 1214.03 449 1214L449 1195C435.873 1195 418.242 1197.65 412 1211M541 1273C533.586 1276.3 528.151 1282.11 520 1284.24C499.606 1289.56 475.332 1278.23 472 1256L557 1256C557 1244.19 557.055 1232.86 551.623 1222C536.464 1191.68 492.573 1186.06 468.015 1208.18C448.705 1225.58 446.403 1258.66 460.09 1280C472.539 1299.41 496.28 1305 518 1302.83C525.669 1302.06 549.553 1296.14 549.808 1285.99C549.92 1281.52 543.407 1276.46 541 1273M584 1256L625 1256L656 1256C659.328 1256 665.615 1257.18 668.397 1254.97C671.2 1252.75 670.091 1246.07 669.714 1243C668.258 1231.15 664.109 1218.91 655.826 1210.04C626.165 1178.27 568.441 1198.32 564.171 1241C563.088 1251.82 564.217 1262.95 568.464 1273C579.263 1298.56 610.645 1307.47 636 1301.99C643.135 1300.44 661.104 1294.94 661.963 1286C662.334 1282.14 655.109 1273.39 650.985 1274.33C644.517 1275.81 638.937 1282.38 632 1284.24C609.975 1290.15 590.144 1277.23 584 1256M849 1195.43C806.428 1201.53 786.587 1254.63 816.3 1286.91C829.217 1300.95 849.671 1305.1 868 1302.71C907.373 1297.58 925.29 1250.17 904.452 1218C892.729 1199.9 869.748 1192.46 849 1195.43M1104 1208L1112 1224C1130.09 1216.39 1162.18 1200.26 1172.45 1229C1173.85 1232.92 1173.99 1236.89 1174 1241C1155.95 1241 1133.75 1237.48 1117 1245.49C1099.22 1254.01 1095.57 1280.24 1110.17 1293.53C1127.67 1309.46 1159.2 1305.66 1175 1290L1175 1302L1194 1302L1194 1251C1194 1239.49 1194.83 1227.9 1190.37 1217C1176.63 1183.36 1127.68 1193.75 1104 1208M1472 1208L1480 1224C1497.47 1215.74 1530.83 1200.7 1540.25 1229C1541.57 1232.95 1541.97 1236.86 1542 1241C1524.6 1241 1503.45 1237.75 1487 1244.48C1467.97 1252.25 1462.39 1279.56 1478.09 1293.67C1495.63 1309.43 1527.26 1305.6 1543 1290L1543 1302L1562 1302L1562 1251C1562 1239.96 1562.77 1228.45 1558.55 1218C1545.05 1184.58 1496.01 1192.12 1472 1208M1707 1210L1706 1210L1706 1196L1687 1196L1687 1302L1707 1302L1707 1257C1707 1247.09 1706.42 1236.95 1711.53 1228C1721.69 1210.22 1749.82 1207.15 1760.63 1226C1765.57 1234.6 1765 1245.45 1765 1255L1765 1302L1785 1302L1785 1257C1785 1247.09 1784.42 1236.95 1789.53 1228C1799.69 1210.22 1827.82 1207.15 1838.63 1226C1843.5 1234.49 1843 1245.55 1843 1255L1843 1302L1863 1302C1863 1277.06 1868.75 1243.55 1859.54 1220C1845.71 1184.65 1800.18 1190.83 1778 1213C1766.91 1191.61 1718.83 1185.74 1707 1210M1968 1273C1960.55 1276.15 1955.09 1282.13 1947 1284.24C1926.56 1289.58 1902.34 1278.28 1899 1256L1984 1256C1984 1243.86 1984.06 1232.03 1978.1 1221C1962.53 1192.23 1920.47 1186.2 1896 1207.3C1876.31 1224.29 1872.71 1257.18 1886.23 1279C1898.73 1299.16 1922.65 1305.06 1945 1302.83C1952.81 1302.05 1976.27 1296.26 1976.67 1285.99C1976.84 1281.46 1970.42 1276.48 1968 1273M2021 1210L2020 1210L2020 1196L2001 1196L2001 1302L2021 1302L2021 1257C2021 1247.47 2020.12 1237.67 2024.91 1229C2034.74 1211.17 2065.19 1205.97 2076.79 1225C2081.99 1233.53 2081 1243.45 2081 1253L2081 1302L2102 1302L2102 1251C2102 1238.84 2101.91 1224.79 2095.52 1214C2082.37 1191.78 2035.69 1185.33 2021 1210z"/>
<path style="fill:#bd273b; stroke:none;" d="M2377 1224C2394.5 1216.74 2428.5 1200.02 2437.78 1229C2439.03 1232.92 2439 1236.93 2439 1241C2419.69 1241 2393.61 1236.44 2377.01 1248.64C2361.05 1260.38 2364.48 1286.69 2380 1296.89C2397.57 1308.44 2425.02 1304.67 2440 1291L2440 1302L2459 1302L2459 1242C2459 1228.95 2458.23 1214.94 2447.83 1205.47C2433 1191.97 2406.96 1192.72 2389 1198.35C2383.94 1199.93 2372.21 1203.08 2370.82 1209.09C2369.78 1213.57 2375.31 1219.96 2377 1224z"/>
<path style="fill:#1f292b; stroke:none;" d="M2664 1224C2681.52 1216.73 2715.41 1200.04 2724.78 1229C2726.04 1232.92 2726 1236.94 2726 1241C2713.04 1241 2699.95 1240.47 2687 1241.04C2680.92 1241.31 2674.48 1242.99 2669 1245.63C2652.68 1253.5 2648.45 1277.29 2660.21 1291C2673.02 1305.91 2715.79 1310.89 2726 1290L2727 1290L2727 1302L2746 1302L2746 1244C2746 1229.69 2745.51 1215 2733.83 1204.82C2718.78 1191.71 2692.85 1192.85 2675 1198.67C2670.13 1200.26 2659.18 1203.31 2657.82 1209.09C2656.73 1213.71 2662.24 1219.92 2664 1224M1220 1196L1220 1284C1220 1294.21 1222.98 1310.26 1216.35 1318.9C1208.84 1328.67 1198.1 1323.26 1189 1320C1186.9 1323.69 1182.58 1330.47 1183.79 1334.89C1185.1 1339.69 1192.95 1340.57 1197 1341.25C1210.38 1343.48 1224.78 1341.22 1233.61 1330C1242.46 1318.75 1240 1302.35 1240 1289L1240 1196L1220 1196M1566 1196C1575.86 1221.41 1588.19 1245.97 1599 1271C1602.83 1279.87 1610.68 1291.09 1611.71 1300.71C1612.06 1304.06 1609.67 1308.13 1608.18 1311C1598.25 1330.17 1585.39 1322.83 1570 1317C1568.23 1320.8 1562.25 1327.6 1563.45 1331.91C1564.71 1336.42 1572.07 1338.76 1576 1339.96C1589.17 1343.98 1605.47 1342.73 1615.71 1332.7C1627.06 1321.58 1631.92 1304.16 1638.31 1290C1647.14 1270.41 1655.47 1250.59 1664.31 1231C1669.38 1219.75 1676.14 1208.03 1679 1196L1659.7 1197.03L1649.28 1219L1624 1279L1623 1279C1617.86 1250.17 1596.11 1224.18 1588 1196L1566 1196M2751 1196C2752.65 1205.26 2758.35 1214.42 2762.14 1223C2769.36 1239.33 2776.36 1255.76 2783.77 1272C2787.34 1279.83 2796.59 1293.32 2795.97 1302C2795.15 1313.59 2782.82 1326.25 2771 1324.18C2766.19 1323.33 2760.56 1317.92 2756.1 1318.17C2751.96 1318.39 2746.44 1329.18 2748.13 1332.79C2750.12 1337.03 2757.82 1339.44 2762 1340.49C2776.27 1344.06 2792.71 1341.63 2802.67 1329.99C2813.47 1317.37 2818.56 1298.97 2825.31 1284C2838.45 1254.83 2851.86 1225.6 2864 1196C2858.75 1196 2848.93 1194.11 2844.39 1197.03C2839.26 1200.34 2836.35 1212.51 2834 1218C2825.99 1236.7 2812.55 1258 2809 1278L2798.58 1257L2781.58 1218L2771.36 1197.03L2751 1196z"/>
<!-- <path style="fill:#ffffff; stroke:none;" d="M472 1241L538 1241C532.963 1203.78 475.363 1202.48 472 1241M584 1241L650 1241C648.064 1217.33 620.135 1204.68 600 1216.36C590.657 1221.79 586.107 1230.82 584 1241M1899 1241L1965 1241C1959.53 1203.94 1902.38 1202.34 1899 1241M724 1213.46C679.302 1221.52 693.638 1293.68 739 1284.9C783.369 1276.33 769.604 1205.24 724 1213.46M850 1213.47C805.641 1221.78 819.947 1293.46 865 1284.91C909.87 1276.39 895.892 1204.87 850 1213.47M346 1255L321 1255C316.583 1255.01 312.342 1255.43 308 1256.26C296.146 1258.53 288.328 1271.88 298.214 1281.79C310.445 1294.04 336.919 1287.36 344.427 1273C347.15 1267.79 346 1260.7 346 1255M1174 1255L1149 1255C1144.31 1255.01 1139.61 1255.39 1135 1256.31C1123.49 1258.62 1116.39 1271.31 1125.22 1280.9C1137.38 1294.08 1164.23 1287.88 1172.08 1273C1174.94 1267.59 1174 1260.92 1174 1255M1542 1255L1517 1255C1512.58 1255 1508.35 1255.26 1504 1256.1C1492 1258.42 1483.71 1271.28 1493.53 1281.52C1505.83 1294.34 1532.19 1287.2 1540.03 1273C1542.99 1267.65 1542 1260.9 1542 1255M2439 1255L2414 1255C2409.61 1255.01 2405.33 1255.41 2401 1256.15C2388.97 1258.18 2381.52 1272.08 2391.21 1281.79C2403.45 1294.04 2429.92 1287.36 2437.43 1273C2440.15 1267.79 2439 1260.7 2439 1255M2726 1255L2701 1255C2696.31 1255.01 2691.61 1255.39 2687 1256.31C2675.79 1258.56 2668.6 1271.42 2677.23 1280.9C2689.12 1293.97 2716.68 1287.97 2724.16 1273C2726.89 1267.54 2726 1260.93 2726 1255z"/> -->
<path style="fill:#1f292b; stroke:none;" d="M1266 1302L1259 1332C1262.54 1332 1268.45 1333.11 1271.49 1330.97C1275.01 1328.5 1276.04 1320.88 1277.33 1317C1280.94 1306.17 1292.35 1284.26 1277.96 1276.69C1261.15 1267.84 1249.88 1293.56 1266 1302z"/>
</svg>
