<?xml version="1.0" standalone="yes"?>
<svg xmlns="http://www.w3.org/2000/svg" width="176" height="84">
<!-- <path style="fill:#020303; stroke:none;" d="M0 0L0 52L14 44C6.70956 34.3198 8.45954 28.4398 10 17L29 25C30.6619 13.9612 40.4632 8.76 49 3C51.7031 9.49252 56.5855 16.7059 56.4861 24C56.266 40.1503 39.3786 36.4665 31 31C30.6041 38.2323 26.3016 43.1868 19 44L19 45C25.4222 50.4557 26.5915 63.2738 15 63.5579C9.08867 63.7027 4.4024 57.0982 0 54L0 84L176 84L176 0L0 0z"/> -->
<path style="fill:#5bd83a; stroke:none;" d="M48 3C43.6887 6.13499 39.0332 8.8045 35.0941 12.439C33.0581 14.3176 31.3649 16.3911 30.3549 18.9969C22.9251 38.1662 57.6268 43.9238 56.2114 23C55.981 19.5938 54.9548 16.1816 53.7708 13C52.3671 9.22797 50.8637 5.83574 48 3z"/>
<path style="fill:#07a9f7; stroke:none;" d="M46 4L47 5L46 4M36 11L37 12L36 11M53 12L54 13L53 12M71 15L71 26L84 26L84 70L96 70L96 26L109 26L109 15L71 15M115 16L115 70L128 70L128 50C144.001 52.5468 161.927 34.6079 147.775 20.2137C140.182 12.4907 124.7 14.1991 115 16M159 15L159 70L172 70L172 15L159 15M31 16L32 17L31 16z"/>
<path style="fill:#fbad16; stroke:none;" d="M10 17C7.69439 28.8889 6.89108 35.5036 15 45C0.903784 44.387 -1.72178 60.5634 13 63.0617C24.8594 65.0743 27.134 50.0128 18 45C21.0276 44.0319 24.355 43.6461 26.8912 41.5664C40.8791 30.0962 20.5865 17.9301 10 17z"/>
<path style="fill:#07a9f7; stroke:none;" d="M55 18L56 19L55 18z"/>
<path style="fill:#e72638; stroke:none;" d="M19 19L20 20L19 19M21 20L22 21L21 20M23 21L24 22L23 21z"/>
<path style="fill:#07a9f7; stroke:none;" d="M29 21L30 22L29 21M56.3333 22.6667L56.6667 23.3333L56.3333 22.6667z"/>
<path style="fill:#e72638; stroke:none;" d="M8 24L9 25L8 24z"/>
<path style="fill:#07a9f7; stroke:none;" d="M29 24L30 25L29 24z"/>
<path style="fill:#ffffff; stroke:none;" d="M128 25L128 41C142.391 40.3313 142.928 22.9121 128 25z"/>
<path style="fill:#07a9f7; stroke:none;" d="M56.3333 25.6667L56.6667 26.3333L56.3333 25.6667M49 35L50 36L49 35M39 36L40 37L39 36M46 36L47 37L46 36z"/>
<path style="fill:#e72638; stroke:none;" d="M8 37L9 38L8 37M10 40L11 41L10 40M14.3333 43.6667L14.6667 44.3333L14.3333 43.6667z"/>
<path style="fill:#07a9f7; stroke:none;" d="M63.3179 44.0471C58.8657 46.8089 63.2009 53.7328 67.6821 50.9529C72.1343 48.1911 67.7991 41.2672 63.3179 44.0471z"/>
<path style="fill:#e72638; stroke:none;" d="M12 44L13 45L12 44M18 44L19 45L18 44M19 45L20 46L19 45M8 46L9 47L8 46M21 46L22 47L21 46M6 47L7 48L6 47M22 47L23 48L22 47M3 49L4 50L3 49M23 49L24 50L23 49M2 50L3 51L2 50M1 51L2 52L1 51M24 51L24 57L25 57L24 51M0.333333 52.6667L0.666667 53.3333L0.333333 52.6667M23 58L24 59L23 58M7 60L8 61L7 60M8 61L9 62L8 61M10 62L11 63L10 62M19 62L20 63L19 62M52.0432 62.8472C43.7978 65.3432 48.5657 78.5866 55.8912 75.7585C62.8028 73.0902 59.8162 60.4943 52.0432 62.8472M12 63L13 64L12 63M14 63L14 64L18 64L14 63M21 81C23.6616 80.9927 26.3926 81.1054 28.9992 80.4668C49.3101 75.4911 23.2114 51.9284 20.3194 73C19.9463 75.7189 20.5077 78.3388 21 81z"/>
</svg>
